<svg xmlns="http://www.w3.org/2000/svg" viewBox="0 0 1100 620" role="img" aria-label="Agency Spectrum">
  <defs>
    <linearGradient id="bg" x1="0" x2="1" y1="0" y2="1"><stop offset="0" stop-color="#eff6ff"/><stop offset="0.55" stop-color="#f8fafc"/><stop offset="1" stop-color="#ecfeff"/></linearGradient>
    <filter id="shadow" x="-20%" y="-20%" width="140%" height="140%"><feDropShadow dx="0" dy="8" stdDeviation="10" flood-color="#0f172a" flood-opacity="0.12"/></filter>
    <marker id="arrow" markerWidth="10" markerHeight="10" refX="8" refY="3" orient="auto"><path d="M0,0 L0,6 L9,3 z" fill="#334155"/></marker>
  </defs>
  <rect width="1100" height="620" rx="28" fill="url(#bg)"/>
  <circle cx="1010" cy="80" r="130" fill="#93c5fd" opacity="0.18"/>
  <circle cx="80" cy="550" r="120" fill="#34d399" opacity="0.14"/>
  <text x="42" y="54" font-size="28" font-weight="900" fill="#0f172a">Agency Spectrum</text>
  <text x="42" y="84" font-size="15" font-weight="650" fill="#475569">More autonomy means more capability and more guardrails</text>
  <g filter="url(#shadow)"><line x1="205" y1="298" x2="225" y2="298" stroke="#334155" stroke-width="2.5" marker-end="url(#arrow)"/><line x1="375" y1="298" x2="395" y2="298" stroke="#334155" stroke-width="2.5" marker-end="url(#arrow)"/><line x1="525" y1="298" x2="545" y2="298" stroke="#334155" stroke-width="2.5" marker-end="url(#arrow)"/><line x1="705" y1="298" x2="725" y2="298" stroke="#334155" stroke-width="2.5" marker-end="url(#arrow)"/><line x1="895" y1="298" x2="915" y2="298" stroke="#334155" stroke-width="2.5" marker-end="url(#arrow)"/><rect x="60" y="255" width="145" height="85" rx="18" fill="#dbeafe" stroke="#2563eb" stroke-width="2"/><text x="132.5" y="297.5" text-anchor="middle" dominant-baseline="middle" font-size="14" font-weight="700" fill="#0f172a">One completion</text><rect x="225" y="255" width="150" height="85" rx="18" fill="#e0f2fe" stroke="#0284c7" stroke-width="2"/><text x="300" y="289.5" text-anchor="middle" dominant-baseline="middle" font-size="14" font-weight="700" fill="#0f172a">Tool-assisted</text><text x="300" y="307.5" text-anchor="middle" dominant-baseline="middle" font-size="14" font-weight="700" fill="#0f172a">chat</text><rect x="395" y="255" width="130" height="85" rx="18" fill="#dcfce7" stroke="#16a34a" stroke-width="2"/><text x="460" y="297.5" text-anchor="middle" dominant-baseline="middle" font-size="14" font-weight="700" fill="#0f172a">ReAct loop</text><rect x="545" y="255" width="160" height="85" rx="18" fill="#fef3c7" stroke="#d97706" stroke-width="2"/><text x="625" y="297.5" text-anchor="middle" dominant-baseline="middle" font-size="14" font-weight="700" fill="#0f172a">Planning + memory</text><rect x="725" y="255" width="170" height="85" rx="18" fill="#fed7aa" stroke="#ea580c" stroke-width="2"/><text x="810" y="289.5" text-anchor="middle" dominant-baseline="middle" font-size="14" font-weight="700" fill="#0f172a">Multi-agent</text><text x="810" y="307.5" text-anchor="middle" dominant-baseline="middle" font-size="14" font-weight="700" fill="#0f172a">orchestration</text><rect x="915" y="255" width="140" height="85" rx="18" fill="#fee2e2" stroke="#dc2626" stroke-width="2"/><text x="985" y="289.5" text-anchor="middle" dominant-baseline="middle" font-size="14" font-weight="700" fill="#0f172a">Long-running</text><text x="985" y="307.5" text-anchor="middle" dominant-baseline="middle" font-size="14" font-weight="700" fill="#0f172a">autonomy</text></g>
</svg>