<svg width="1100" height="620" viewBox="0 0 1100 620" fill="none" xmlns="http://www.w3.org/2000/svg">
  <defs>
    <linearGradient id="bg" x1="0" y1="0" x2="1100" y2="620" gradientUnits="userSpaceOnUse"><stop stop-color="#0F172A"/><stop offset="0.5" stop-color="#1E1B4B"/><stop offset="1" stop-color="#312E81"/></linearGradient>
    <linearGradient id="blue" x1="0" y1="0" x2="1" y2="1"><stop stop-color="#38BDF8"/><stop offset="1" stop-color="#2563EB"/></linearGradient>
    <linearGradient id="amber" x1="0" y1="0" x2="1" y2="1"><stop stop-color="#FBBF24"/><stop offset="1" stop-color="#F97316"/></linearGradient>
    <linearGradient id="green" x1="0" y1="0" x2="1" y2="1"><stop stop-color="#86EFAC"/><stop offset="1" stop-color="#10B981"/></linearGradient>
    <linearGradient id="pink" x1="0" y1="0" x2="1" y2="1"><stop stop-color="#F9A8D4"/><stop offset="1" stop-color="#A855F7"/></linearGradient>
    <linearGradient id="cyan" x1="0" y1="0" x2="1" y2="1"><stop stop-color="#67E8F9"/><stop offset="1" stop-color="#0EA5E9"/></linearGradient>
    <linearGradient id="red" x1="0" y1="0" x2="1" y2="1"><stop stop-color="#FDA4AF"/><stop offset="1" stop-color="#EF4444"/></linearGradient>
    <filter id="shadow" x="-20%" y="-20%" width="140%" height="140%"><feDropShadow dx="0" dy="18" stdDeviation="18" flood-color="#020617" flood-opacity="0.34"/></filter>
    <marker id="arrow" markerWidth="14" markerHeight="14" refX="11" refY="7" orient="auto" markerUnits="strokeWidth"><path d="M2 2L12 7L2 12" fill="none" stroke="#E0F2FE" stroke-width="2.5" stroke-linecap="round" stroke-linejoin="round"/></marker>
  </defs>
  <rect width="1100" height="620" rx="34" fill="url(#bg)"/>
  <circle cx="95" cy="95" r="150" fill="#38BDF8" opacity="0.12"/>
  <circle cx="1025" cy="545" r="210" fill="#F472B6" opacity="0.12"/>
  <circle cx="550.0" cy="310.0" r="250" fill="#A78BFA" opacity="0.08"/>
  <text x="70" y="78" fill="#F8FAFC" font-family="Inter, Arial, sans-serif" font-size="36" font-weight="900">AgentPrimer Architecture</text>
  <text x="70" y="112" fill="#CBD5E1" font-family="Inter, Arial, sans-serif" font-size="18">Browser, API, agent runtime, tools, memory, RAG, and SQLite</text>
  <g filter="url(#shadow)"><rect x="70" y="245" width="150" height="95" rx="24" fill="url(#blue)"/><text x="145.0" y="279" text-anchor="middle" fill="white" font-family="Inter, Arial, sans-serif" font-size="20" font-weight="900">Browser</text><text x="145.0" y="311" text-anchor="middle" fill="#E0F2FE" font-family="Inter, Arial, sans-serif" font-size="14" font-weight="650">React UI</text></g><path d="M220 292 C 260.0 292, 260.0 292, 300 292" stroke="#E0F2FE" stroke-width="5" stroke-linecap="round" marker-end="url(#arrow)"/><g filter="url(#shadow)"><rect x="300" y="245" width="150" height="95" rx="24" fill="url(#cyan)"/><text x="375.0" y="279" text-anchor="middle" fill="white" font-family="Inter, Arial, sans-serif" font-size="20" font-weight="900">API Route</text><text x="375.0" y="311" text-anchor="middle" fill="#E0F2FE" font-family="Inter, Arial, sans-serif" font-size="14" font-weight="650">/api/chat</text></g><path d="M450 292 C 490.0 292, 490.0 292, 530 292" stroke="#E0F2FE" stroke-width="5" stroke-linecap="round" marker-end="url(#arrow)"/><g filter="url(#shadow)"><rect x="530" y="225" width="170" height="135" rx="24" fill="url(#pink)"/><text x="615.0" y="259" text-anchor="middle" fill="white" font-family="Inter, Arial, sans-serif" font-size="20" font-weight="900">Agent Runtime</text><text x="615.0" y="291" text-anchor="middle" fill="#E0F2FE" font-family="Inter, Arial, sans-serif" font-size="14" font-weight="650">ReAct loop</text><text x="615.0" y="313" text-anchor="middle" fill="#E0F2FE" font-family="Inter, Arial, sans-serif" font-size="14" font-weight="650">streaming</text><text x="615.0" y="335" text-anchor="middle" fill="#E0F2FE" font-family="Inter, Arial, sans-serif" font-size="14" font-weight="650">tool dispatch</text></g><path d="M700 270 C 745.0 270, 745.0 190, 790 190" stroke="#E0F2FE" stroke-width="5" stroke-linecap="round" marker-end="url(#arrow)"/><g filter="url(#shadow)"><rect x="790" y="140" width="180" height="95" rx="24" fill="url(#amber)"/><text x="880.0" y="174" text-anchor="middle" fill="white" font-family="Inter, Arial, sans-serif" font-size="20" font-weight="900">LLM</text><text x="880.0" y="206" text-anchor="middle" fill="#E0F2FE" font-family="Inter, Arial, sans-serif" font-size="14" font-weight="650">model provider</text></g><path d="M700 300 C 745.0 300, 745.0 300, 790 300" stroke="#E0F2FE" stroke-width="5" stroke-linecap="round" marker-end="url(#arrow)"/><g filter="url(#shadow)"><rect x="790" y="255" width="180" height="95" rx="24" fill="url(#green)"/><text x="880.0" y="289" text-anchor="middle" fill="white" font-family="Inter, Arial, sans-serif" font-size="20" font-weight="900">Tools + MCP</text><text x="880.0" y="321" text-anchor="middle" fill="#E0F2FE" font-family="Inter, Arial, sans-serif" font-size="14" font-weight="650">actions</text></g><path d="M615 360 C 615.0 360, 615.0 440, 615 440" stroke="#E0F2FE" stroke-width="5" stroke-linecap="round" marker-end="url(#arrow)"/><g filter="url(#shadow)"><rect x="525" y="440" width="180" height="90" rx="24" fill="url(#blue)"/><text x="615.0" y="474" text-anchor="middle" fill="white" font-family="Inter, Arial, sans-serif" font-size="20" font-weight="900">SQLite</text><text x="615.0" y="506" text-anchor="middle" fill="#E0F2FE" font-family="Inter, Arial, sans-serif" font-size="14" font-weight="650">persistent state</text></g><path d="M530 270 C 480.0 270, 480.0 420, 430 420" stroke="#E0F2FE" stroke-width="5" stroke-linecap="round" marker-end="url(#arrow)"/><g filter="url(#shadow)"><rect x="300" y="400" width="180" height="90" rx="24" fill="url(#cyan)"/><text x="390.0" y="434" text-anchor="middle" fill="white" font-family="Inter, Arial, sans-serif" font-size="20" font-weight="900">Memory + RAG</text><text x="390.0" y="466" text-anchor="middle" fill="#E0F2FE" font-family="Inter, Arial, sans-serif" font-size="14" font-weight="650">context</text></g>
</svg>
