<svg xmlns="http://www.w3.org/2000/svg" viewBox="0 0 1100 620" role="img" aria-label="Capabilities Produce Observations">
  <defs>
    <linearGradient id="bg" x1="0" x2="1" y1="0" y2="1"><stop offset="0" stop-color="#eff6ff"/><stop offset="0.55" stop-color="#f8fafc"/><stop offset="1" stop-color="#ecfeff"/></linearGradient>
    <filter id="shadow" x="-20%" y="-20%" width="140%" height="140%"><feDropShadow dx="0" dy="8" stdDeviation="10" flood-color="#0f172a" flood-opacity="0.12"/></filter>
    <marker id="arrow" markerWidth="10" markerHeight="10" refX="8" refY="3" orient="auto"><path d="M0,0 L0,6 L9,3 z" fill="#334155"/></marker>
  </defs>
  <rect width="1100" height="620" rx="28" fill="url(#bg)"/>
  <circle cx="1010" cy="80" r="130" fill="#93c5fd" opacity="0.18"/>
  <circle cx="80" cy="550" r="120" fill="#34d399" opacity="0.14"/>
  <text x="42" y="54" font-size="28" font-weight="900" fill="#0f172a">Capabilities Produce Observations</text>
  <text x="42" y="84" font-size="15" font-weight="650" fill="#475569">Tools act; skills guide behavior</text>
  <g filter="url(#shadow)"><line x1="210" y1="295" x2="255" y2="295" stroke="#334155" stroke-width="2.5" marker-end="url(#arrow)"/><line x1="425" y1="270" x2="500" y2="145" stroke="#334155" stroke-width="2.5" marker-end="url(#arrow)"/><line x1="425" y1="285" x2="500" y2="260" stroke="#334155" stroke-width="2.5" marker-end="url(#arrow)"/><line x1="425" y1="310" x2="500" y2="375" stroke="#334155" stroke-width="2.5" marker-end="url(#arrow)"/><line x1="425" y1="330" x2="500" y2="490" stroke="#334155" stroke-width="2.5" marker-end="url(#arrow)"/><line x1="675" y1="145" x2="780" y2="245" stroke="#334155" stroke-width="2.5" marker-end="url(#arrow)"/><line x1="675" y1="260" x2="780" y2="260" stroke="#334155" stroke-width="2.5" marker-end="url(#arrow)"/><line x1="675" y1="375" x2="780" y2="275" stroke="#334155" stroke-width="2.5" marker-end="url(#arrow)"/><line x1="675" y1="490" x2="780" y2="295" stroke="#334155" stroke-width="2.5" marker-end="url(#arrow)"/><text x="727.5" y="384.5" text-anchor="middle" font-size="12" font-weight="700" fill="#475569">guides</text><rect x="70" y="255" width="140" height="80" rx="18" fill="#dbeafe" stroke="#2563eb" stroke-width="2"/><text x="140" y="295" text-anchor="middle" dominant-baseline="middle" font-size="14" font-weight="700" fill="#0f172a">User goal</text><rect x="255" y="235" width="170" height="120" rx="18" fill="#dcfce7" stroke="#16a34a" stroke-width="2"/><text x="340" y="287" text-anchor="middle" dominant-baseline="middle" font-size="14" font-weight="700" fill="#0f172a">Model chooses</text><text x="340" y="305" text-anchor="middle" dominant-baseline="middle" font-size="14" font-weight="700" fill="#0f172a">capability</text><rect x="500" y="105" width="175" height="80" rx="18" fill="#fef3c7" stroke="#d97706" stroke-width="2"/><text x="587.5" y="145" text-anchor="middle" dominant-baseline="middle" font-size="14" font-weight="700" fill="#0f172a">Built-in tools</text><rect x="500" y="220" width="175" height="80" rx="18" fill="#fed7aa" stroke="#ea580c" stroke-width="2"/><text x="587.5" y="260" text-anchor="middle" dominant-baseline="middle" font-size="14" font-weight="700" fill="#0f172a">Function tools</text><rect x="500" y="335" width="175" height="80" rx="18" fill="#ede9fe" stroke="#7c3aed" stroke-width="2"/><text x="587.5" y="375" text-anchor="middle" dominant-baseline="middle" font-size="14" font-weight="700" fill="#0f172a">MCP tools</text><rect x="500" y="450" width="175" height="80" rx="18" fill="#e0f2fe" stroke="#0284c7" stroke-width="2"/><text x="587.5" y="482" text-anchor="middle" dominant-baseline="middle" font-size="14" font-weight="700" fill="#0f172a">SKILL.md</text><text x="587.5" y="500" text-anchor="middle" dominant-baseline="middle" font-size="14" font-weight="700" fill="#0f172a">instructions</text><rect x="780" y="220" width="190" height="95" rx="18" fill="#f1f5f9" stroke="#64748b" stroke-width="2"/><text x="875" y="259.5" text-anchor="middle" dominant-baseline="middle" font-size="14" font-weight="700" fill="#0f172a">Observation or better</text><text x="875" y="277.5" text-anchor="middle" dominant-baseline="middle" font-size="14" font-weight="700" fill="#0f172a">plan</text></g>
</svg>