<svg width="1100" height="620" viewBox="0 0 1100 620" fill="none" xmlns="http://www.w3.org/2000/svg">
  <defs>
    <linearGradient id="bg" x1="0" y1="0" x2="1100" y2="620" gradientUnits="userSpaceOnUse"><stop stop-color="#0F172A"/><stop offset="0.5" stop-color="#1E1B4B"/><stop offset="1" stop-color="#312E81"/></linearGradient>
    <linearGradient id="blue" x1="0" y1="0" x2="1" y2="1"><stop stop-color="#38BDF8"/><stop offset="1" stop-color="#2563EB"/></linearGradient>
    <linearGradient id="amber" x1="0" y1="0" x2="1" y2="1"><stop stop-color="#FBBF24"/><stop offset="1" stop-color="#F97316"/></linearGradient>
    <linearGradient id="green" x1="0" y1="0" x2="1" y2="1"><stop stop-color="#86EFAC"/><stop offset="1" stop-color="#10B981"/></linearGradient>
    <linearGradient id="pink" x1="0" y1="0" x2="1" y2="1"><stop stop-color="#F9A8D4"/><stop offset="1" stop-color="#A855F7"/></linearGradient>
    <linearGradient id="cyan" x1="0" y1="0" x2="1" y2="1"><stop stop-color="#67E8F9"/><stop offset="1" stop-color="#0EA5E9"/></linearGradient>
    <linearGradient id="red" x1="0" y1="0" x2="1" y2="1"><stop stop-color="#FDA4AF"/><stop offset="1" stop-color="#EF4444"/></linearGradient>
    <filter id="shadow" x="-20%" y="-20%" width="140%" height="140%"><feDropShadow dx="0" dy="18" stdDeviation="18" flood-color="#020617" flood-opacity="0.34"/></filter>
    <marker id="arrow" markerWidth="14" markerHeight="14" refX="11" refY="7" orient="auto" markerUnits="strokeWidth"><path d="M2 2L12 7L2 12" fill="none" stroke="#E0F2FE" stroke-width="2.5" stroke-linecap="round" stroke-linejoin="round"/></marker>
  </defs>
  <rect width="1100" height="620" rx="34" fill="url(#bg)"/>
  <circle cx="95" cy="95" r="150" fill="#38BDF8" opacity="0.12"/>
  <circle cx="1025" cy="545" r="210" fill="#F472B6" opacity="0.12"/>
  <circle cx="550.0" cy="310.0" r="250" fill="#A78BFA" opacity="0.08"/>
  <text x="70" y="78" fill="#F8FAFC" font-family="Inter, Arial, sans-serif" font-size="36" font-weight="900">Agent Capabilities</text>
  <text x="70" y="112" fill="#CBD5E1" font-family="Inter, Arial, sans-serif" font-size="18">Four ways AgentPrimer gives agents useful powers</text>
  <g filter="url(#shadow)"><rect x="450" y="150" width="200" height="105" rx="24" fill="url(#pink)"/><text x="550.0" y="184" text-anchor="middle" fill="white" font-family="Inter, Arial, sans-serif" font-size="20" font-weight="900">Agent Runtime</text><text x="550.0" y="216" text-anchor="middle" fill="#E0F2FE" font-family="Inter, Arial, sans-serif" font-size="14" font-weight="650">chooses capability</text><text x="550.0" y="238" text-anchor="middle" fill="#E0F2FE" font-family="Inter, Arial, sans-serif" font-size="14" font-weight="650">from tool schemas</text></g><path d="M450 205 C 350.0 205, 350.0 285, 250 285" stroke="#E0F2FE" stroke-width="5" stroke-linecap="round" marker-end="url(#arrow)"/><g filter="url(#shadow)"><rect x="80" y="250" width="210" height="105" rx="24" fill="url(#blue)"/><text x="185.0" y="284" text-anchor="middle" fill="white" font-family="Inter, Arial, sans-serif" font-size="20" font-weight="900">Built-ins</text><text x="185.0" y="316" text-anchor="middle" fill="#E0F2FE" font-family="Inter, Arial, sans-serif" font-size="14" font-weight="650">files, memory</text><text x="185.0" y="338" text-anchor="middle" fill="#E0F2FE" font-family="Inter, Arial, sans-serif" font-size="14" font-weight="650">preview, shell</text></g><path d="M520 255 C 475.0 255, 475.0 360, 430 360" stroke="#E0F2FE" stroke-width="5" stroke-linecap="round" marker-end="url(#arrow)"/><g filter="url(#shadow)"><rect x="310" y="350" width="210" height="105" rx="24" fill="url(#amber)"/><text x="415.0" y="384" text-anchor="middle" fill="white" font-family="Inter, Arial, sans-serif" font-size="20" font-weight="900">Function Tools</text><text x="415.0" y="416" text-anchor="middle" fill="#E0F2FE" font-family="Inter, Arial, sans-serif" font-size="14" font-weight="650">JSON schema</text><text x="415.0" y="438" text-anchor="middle" fill="#E0F2FE" font-family="Inter, Arial, sans-serif" font-size="14" font-weight="650">subprocess worker</text></g><path d="M650 205 C 750.0 205, 750.0 285, 850 285" stroke="#E0F2FE" stroke-width="5" stroke-linecap="round" marker-end="url(#arrow)"/><g filter="url(#shadow)"><rect x="790" y="250" width="210" height="105" rx="24" fill="url(#green)"/><text x="895.0" y="284" text-anchor="middle" fill="white" font-family="Inter, Arial, sans-serif" font-size="20" font-weight="900">MCP Servers</text><text x="895.0" y="316" text-anchor="middle" fill="#E0F2FE" font-family="Inter, Arial, sans-serif" font-size="14" font-weight="650">external tools</text><text x="895.0" y="338" text-anchor="middle" fill="#E0F2FE" font-family="Inter, Arial, sans-serif" font-size="14" font-weight="650">open protocol</text></g><path d="M555 255 C 602.5 255, 602.5 440, 650 440" stroke="#E0F2FE" stroke-width="5" stroke-linecap="round" marker-end="url(#arrow)"/><g filter="url(#shadow)"><rect x="560" y="430" width="210" height="105" rx="24" fill="url(#cyan)"/><text x="665.0" y="464" text-anchor="middle" fill="white" font-family="Inter, Arial, sans-serif" font-size="20" font-weight="900">SKILL.md</text><text x="665.0" y="496" text-anchor="middle" fill="#E0F2FE" font-family="Inter, Arial, sans-serif" font-size="14" font-weight="650">workflow text</text><text x="665.0" y="518" text-anchor="middle" fill="#E0F2FE" font-family="Inter, Arial, sans-serif" font-size="14" font-weight="650">loaded on demand</text></g>
</svg>
