<svg xmlns="http://www.w3.org/2000/svg" viewBox="0 0 1100 620" role="img" aria-label="Capability Selection Checklist">
  <defs>
    <linearGradient id="bg" x1="0" x2="1" y1="0" y2="1"><stop offset="0" stop-color="#eff6ff"/><stop offset="0.55" stop-color="#f8fafc"/><stop offset="1" stop-color="#ecfeff"/></linearGradient>
    <filter id="shadow" x="-20%" y="-20%" width="140%" height="140%"><feDropShadow dx="0" dy="8" stdDeviation="10" flood-color="#0f172a" flood-opacity="0.12"/></filter>
    <marker id="arrow" markerWidth="10" markerHeight="10" refX="8" refY="3" orient="auto"><path d="M0,0 L0,6 L9,3 z" fill="#334155"/></marker>
  </defs>
  <rect width="1100" height="620" rx="28" fill="url(#bg)"/>
  <circle cx="1010" cy="80" r="130" fill="#93c5fd" opacity="0.18"/>
  <circle cx="80" cy="550" r="120" fill="#34d399" opacity="0.14"/>
  <text x="42" y="54" font-size="28" font-weight="900" fill="#0f172a">Capability Selection Checklist</text>
  <text x="42" y="84" font-size="15" font-weight="650" fill="#475569">Choose the smallest capability that safely solves the need</text>
  <g filter="url(#shadow)"><line x1="225" y1="290" x2="280" y2="290" stroke="#334155" stroke-width="2.5" marker-end="url(#arrow)"/><line x1="450" y1="260" x2="515" y2="160" stroke="#334155" stroke-width="2.5" marker-end="url(#arrow)"/><text x="482.5" y="202" text-anchor="middle" font-size="12" font-weight="700" fill="#475569">guidance</text><line x1="450" y1="320" x2="515" y2="390" stroke="#334155" stroke-width="2.5" marker-end="url(#arrow)"/><text x="482.5" y="347" text-anchor="middle" font-size="12" font-weight="700" fill="#475569">action</text><line x1="680" y1="390" x2="745" y2="300" stroke="#334155" stroke-width="2.5" marker-end="url(#arrow)"/><text x="712.5" y="337" text-anchor="middle" font-size="12" font-weight="700" fill="#475569">yes</text><line x1="680" y1="410" x2="745" y2="480" stroke="#334155" stroke-width="2.5" marker-end="url(#arrow)"/><text x="712.5" y="437" text-anchor="middle" font-size="12" font-weight="700" fill="#475569">no</text><line x1="895" y1="480" x2="935" y2="390" stroke="#334155" stroke-width="2.5" marker-end="url(#arrow)"/><text x="915" y="427" text-anchor="middle" font-size="12" font-weight="700" fill="#475569">no</text><rect x="65" y="250" width="160" height="80" rx="18" fill="#dbeafe" stroke="#2563eb" stroke-width="2"/><text x="145" y="282" text-anchor="middle" dominant-baseline="middle" font-size="14" font-weight="700" fill="#0f172a">Need new</text><text x="145" y="300" text-anchor="middle" dominant-baseline="middle" font-size="14" font-weight="700" fill="#0f172a">capability</text><rect x="280" y="235" width="170" height="110" rx="18" fill="#dcfce7" stroke="#16a34a" stroke-width="2"/><text x="365" y="290" text-anchor="middle" dominant-baseline="middle" font-size="14" font-weight="700" fill="#0f172a">Action or guidance?</text><rect x="515" y="120" width="165" height="80" rx="18" fill="#e0f2fe" stroke="#0284c7" stroke-width="2"/><text x="597.5" y="160" text-anchor="middle" dominant-baseline="middle" font-size="14" font-weight="700" fill="#0f172a">Use SKILL.md</text><rect x="515" y="350" width="165" height="80" rx="18" fill="#fef3c7" stroke="#d97706" stroke-width="2"/><text x="597.5" y="382" text-anchor="middle" dominant-baseline="middle" font-size="14" font-weight="700" fill="#0f172a">Should platform own</text><text x="597.5" y="400" text-anchor="middle" dominant-baseline="middle" font-size="14" font-weight="700" fill="#0f172a">it?</text><rect x="745" y="260" width="150" height="80" rx="18" fill="#fed7aa" stroke="#ea580c" stroke-width="2"/><text x="820" y="300" text-anchor="middle" dominant-baseline="middle" font-size="14" font-weight="700" fill="#0f172a">Built-in tool</text><rect x="745" y="440" width="150" height="80" rx="18" fill="#ede9fe" stroke="#7c3aed" stroke-width="2"/><text x="820" y="480" text-anchor="middle" dominant-baseline="middle" font-size="14" font-weight="700" fill="#0f172a">MCP server?</text><rect x="935" y="350" width="130" height="80" rx="18" fill="#fee2e2" stroke="#dc2626" stroke-width="2"/><text x="1000" y="390" text-anchor="middle" dominant-baseline="middle" font-size="14" font-weight="700" fill="#0f172a">Function tool</text></g>
</svg>