<svg xmlns="http://www.w3.org/2000/svg" viewBox="0 0 1120 650" role="img" aria-label="Agent Stream Events">
  <defs>
    <linearGradient id="bg" x1="0" x2="1" y1="0" y2="1"><stop offset="0" stop-color="#eff6ff"/><stop offset="0.55" stop-color="#f8fafc"/><stop offset="1" stop-color="#ecfeff"/></linearGradient>
    <filter id="shadow" x="-20%" y="-20%" width="140%" height="140%"><feDropShadow dx="0" dy="8" stdDeviation="10" flood-color="#0f172a" flood-opacity="0.12"/></filter>
    <marker id="arrow" markerWidth="10" markerHeight="10" refX="8" refY="3" orient="auto"><path d="M0,0 L0,6 L9,3 z" fill="#334155"/></marker>
  </defs>
  <rect width="1120" height="650" rx="28" fill="url(#bg)"/>
  <circle cx="1030" cy="80" r="130" fill="#93c5fd" opacity="0.18"/>
  <circle cx="80" cy="580" r="120" fill="#34d399" opacity="0.14"/>
  <text x="42" y="54" font-size="28" font-weight="900" fill="#0f172a">Agent Stream Events</text>
  <text x="42" y="84" font-size="15" font-weight="650" fill="#475569">The browser sees progress before the turn finishes</text>
  <g filter="url(#shadow)"><rect x="5" y="105" width="150" height="42" rx="999" fill="#fff" stroke="#93c5fd" stroke-width="2"/><text x="80" y="126" text-anchor="middle" dominant-baseline="middle" font-size="13" font-weight="800" fill="#0f172a">Model</text><line x1="80" y1="150" x2="80" y2="590" stroke="#cbd5e1" stroke-width="2" stroke-dasharray="6 8"/><rect x="325" y="105" width="150" height="42" rx="999" fill="#fff" stroke="#93c5fd" stroke-width="2"/><text x="400" y="126" text-anchor="middle" dominant-baseline="middle" font-size="13" font-weight="800" fill="#0f172a">Server</text><line x1="400" y1="150" x2="400" y2="590" stroke="#cbd5e1" stroke-width="2" stroke-dasharray="6 8"/><rect x="645" y="105" width="150" height="42" rx="999" fill="#fff" stroke="#93c5fd" stroke-width="2"/><text x="720" y="126" text-anchor="middle" dominant-baseline="middle" font-size="13" font-weight="800" fill="#0f172a">Browser</text><line x1="720" y1="150" x2="720" y2="590" stroke="#cbd5e1" stroke-width="2" stroke-dasharray="6 8"/><rect x="965" y="105" width="150" height="42" rx="999" fill="#fff" stroke="#93c5fd" stroke-width="2"/><text x="1040" y="126" text-anchor="middle" dominant-baseline="middle" font-size="13" font-weight="800" fill="#0f172a">UI</text><line x1="1040" y1="150" x2="1040" y2="590" stroke="#cbd5e1" stroke-width="2" stroke-dasharray="6 8"/><line x1="80" y1="185" x2="400" y2="185" stroke="#334155" stroke-width="2.5" marker-end="url(#arrow)"/><text x="240" y="177" text-anchor="middle" font-size="12" font-weight="700" fill="#475569">text delta</text><line x1="400" y1="229" x2="720" y2="229" stroke="#334155" stroke-width="2.5" marker-end="url(#arrow)"/><text x="560" y="221" text-anchor="middle" font-size="12" font-weight="700" fill="#475569">text part</text><line x1="720" y1="273" x2="1040" y2="273" stroke="#334155" stroke-width="2.5" marker-end="url(#arrow)"/><text x="880" y="265" text-anchor="middle" font-size="12" font-weight="700" fill="#475569">append token</text><line x1="80" y1="317" x2="400" y2="317" stroke="#334155" stroke-width="2.5" marker-end="url(#arrow)"/><text x="240" y="309" text-anchor="middle" font-size="12" font-weight="700" fill="#475569">tool call start</text><line x1="400" y1="361" x2="720" y2="361" stroke="#334155" stroke-width="2.5" marker-end="url(#arrow)"/><text x="560" y="353" text-anchor="middle" font-size="12" font-weight="700" fill="#475569">tool-start event</text><line x1="720" y1="405" x2="1040" y2="405" stroke="#334155" stroke-width="2.5" marker-end="url(#arrow)"/><text x="880" y="397" text-anchor="middle" font-size="12" font-weight="700" fill="#475569">show tool card</text><line x1="80" y1="449" x2="400" y2="449" stroke="#334155" stroke-width="2.5" marker-end="url(#arrow)"/><text x="240" y="441" text-anchor="middle" font-size="12" font-weight="700" fill="#475569">args delta</text><line x1="400" y1="493" x2="720" y2="493" stroke="#334155" stroke-width="2.5" marker-end="url(#arrow)"/><text x="560" y="485" text-anchor="middle" font-size="12" font-weight="700" fill="#475569">tool-delta event</text><line x1="400" y1="537" x2="400" y2="537" stroke="#334155" stroke-width="2.5" marker-end="url(#arrow)"/><text x="400" y="529" text-anchor="middle" font-size="12" font-weight="700" fill="#475569">execute tool</text><line x1="400" y1="581" x2="720" y2="581" stroke="#334155" stroke-width="2.5" marker-end="url(#arrow)"/><text x="560" y="573" text-anchor="middle" font-size="12" font-weight="700" fill="#475569">tool-result event</text><line x1="720" y1="625" x2="1040" y2="625" stroke="#334155" stroke-width="2.5" marker-end="url(#arrow)"/><text x="880" y="617" text-anchor="middle" font-size="12" font-weight="700" fill="#475569">show observation</text><line x1="400" y1="669" x2="720" y2="669" stroke="#334155" stroke-width="2.5" marker-end="url(#arrow)"/><text x="560" y="661" text-anchor="middle" font-size="12" font-weight="700" fill="#475569">finish message</text></g>
</svg>