<svg xmlns="http://www.w3.org/2000/svg" viewBox="0 0 1120 650" role="img" aria-label="Async Sub-Agent Lifecycle">
  <defs>
    <linearGradient id="bg" x1="0" x2="1" y1="0" y2="1"><stop offset="0" stop-color="#eff6ff"/><stop offset="0.55" stop-color="#f8fafc"/><stop offset="1" stop-color="#ecfeff"/></linearGradient>
    <filter id="shadow" x="-20%" y="-20%" width="140%" height="140%"><feDropShadow dx="0" dy="8" stdDeviation="10" flood-color="#0f172a" flood-opacity="0.12"/></filter>
    <marker id="arrow" markerWidth="10" markerHeight="10" refX="8" refY="3" orient="auto"><path d="M0,0 L0,6 L9,3 z" fill="#334155"/></marker>
  </defs>
  <rect width="1120" height="650" rx="28" fill="url(#bg)"/>
  <circle cx="1030" cy="80" r="130" fill="#93c5fd" opacity="0.18"/>
  <circle cx="80" cy="580" r="120" fill="#34d399" opacity="0.14"/>
  <text x="42" y="54" font-size="28" font-weight="900" fill="#0f172a">Async Sub-Agent Lifecycle</text>
  <text x="42" y="84" font-size="15" font-weight="650" fill="#475569">Background work communicates through durable task state</text>
  <g filter="url(#shadow)"><rect x="5" y="105" width="150" height="42" rx="999" fill="#fff" stroke="#93c5fd" stroke-width="2"/><text x="80" y="126" text-anchor="middle" dominant-baseline="middle" font-size="13" font-weight="800" fill="#0f172a">Parent</text><line x1="80" y1="150" x2="80" y2="590" stroke="#cbd5e1" stroke-width="2" stroke-dasharray="6 8"/><rect x="245" y="105" width="150" height="42" rx="999" fill="#fff" stroke="#93c5fd" stroke-width="2"/><text x="320" y="126" text-anchor="middle" dominant-baseline="middle" font-size="13" font-weight="800" fill="#0f172a">run_subagent_async</text><line x1="320" y1="150" x2="320" y2="590" stroke="#cbd5e1" stroke-width="2" stroke-dasharray="6 8"/><rect x="485" y="105" width="150" height="42" rx="999" fill="#fff" stroke="#93c5fd" stroke-width="2"/><text x="560" y="126" text-anchor="middle" dominant-baseline="middle" font-size="13" font-weight="800" fill="#0f172a">Task file</text><line x1="560" y1="150" x2="560" y2="590" stroke="#cbd5e1" stroke-width="2" stroke-dasharray="6 8"/><rect x="725" y="105" width="150" height="42" rx="999" fill="#fff" stroke="#93c5fd" stroke-width="2"/><text x="800" y="126" text-anchor="middle" dominant-baseline="middle" font-size="13" font-weight="800" fill="#0f172a">Child agent</text><line x1="800" y1="150" x2="800" y2="590" stroke="#cbd5e1" stroke-width="2" stroke-dasharray="6 8"/><rect x="965" y="105" width="150" height="42" rx="999" fill="#fff" stroke="#93c5fd" stroke-width="2"/><text x="1040" y="126" text-anchor="middle" dominant-baseline="middle" font-size="13" font-weight="800" fill="#0f172a">DB</text><line x1="1040" y1="150" x2="1040" y2="590" stroke="#cbd5e1" stroke-width="2" stroke-dasharray="6 8"/><line x1="80" y1="185" x2="320" y2="185" stroke="#334155" stroke-width="2.5" marker-end="url(#arrow)"/><text x="200" y="177" text-anchor="middle" font-size="12" font-weight="700" fill="#475569">delegate task</text><line x1="320" y1="229" x2="560" y2="229" stroke="#334155" stroke-width="2.5" marker-end="url(#arrow)"/><text x="440" y="221" text-anchor="middle" font-size="12" font-weight="700" fill="#475569">create task.md</text><line x1="320" y1="273" x2="1040" y2="273" stroke="#334155" stroke-width="2.5" marker-end="url(#arrow)"/><text x="680" y="265" text-anchor="middle" font-size="12" font-weight="700" fill="#475569">create task row</text><line x1="320" y1="317" x2="80" y2="317" stroke="#334155" stroke-width="2.5" marker-end="url(#arrow)"/><text x="200" y="309" text-anchor="middle" font-size="12" font-weight="700" fill="#475569">return task_id</text><line x1="800" y1="361" x2="560" y2="361" stroke="#334155" stroke-width="2.5" marker-end="url(#arrow)"/><text x="680" y="353" text-anchor="middle" font-size="12" font-weight="700" fill="#475569">append progress</text><line x1="800" y1="405" x2="560" y2="405" stroke="#334155" stroke-width="2.5" marker-end="url(#arrow)"/><text x="680" y="397" text-anchor="middle" font-size="12" font-weight="700" fill="#475569">finished/error</text><line x1="800" y1="449" x2="1040" y2="449" stroke="#334155" stroke-width="2.5" marker-end="url(#arrow)"/><text x="920" y="441" text-anchor="middle" font-size="12" font-weight="700" fill="#475569">notification</text><line x1="80" y1="493" x2="1040" y2="493" stroke="#334155" stroke-width="2.5" marker-end="url(#arrow)"/><text x="560" y="485" text-anchor="middle" font-size="12" font-weight="700" fill="#475569">read next turn</text></g>
</svg>