<svg xmlns="http://www.w3.org/2000/svg" viewBox="0 0 1100 620" role="img" aria-label="Context Stack">
  <defs>
    <linearGradient id="bg" x1="0" x2="1" y1="0" y2="1"><stop offset="0" stop-color="#eff6ff"/><stop offset="0.55" stop-color="#f8fafc"/><stop offset="1" stop-color="#ecfeff"/></linearGradient>
    <filter id="shadow" x="-20%" y="-20%" width="140%" height="140%"><feDropShadow dx="0" dy="8" stdDeviation="10" flood-color="#0f172a" flood-opacity="0.12"/></filter>
    <marker id="arrow" markerWidth="10" markerHeight="10" refX="8" refY="3" orient="auto"><path d="M0,0 L0,6 L9,3 z" fill="#334155"/></marker>
  </defs>
  <rect width="1100" height="620" rx="28" fill="url(#bg)"/>
  <circle cx="1010" cy="80" r="130" fill="#93c5fd" opacity="0.18"/>
  <circle cx="80" cy="550" r="120" fill="#34d399" opacity="0.14"/>
  <text x="42" y="54" font-size="28" font-weight="900" fill="#0f172a">Context Stack</text>
  <text x="42" y="84" font-size="15" font-weight="650" fill="#475569">Only selected state becomes current model context</text>
  <g filter="url(#shadow)"><line x1="290" y1="158" x2="395" y2="245" stroke="#334155" stroke-width="2.5" marker-end="url(#arrow)"/><line x1="290" y1="258" x2="395" y2="270" stroke="#334155" stroke-width="2.5" marker-end="url(#arrow)"/><line x1="290" y1="358" x2="395" y2="295" stroke="#334155" stroke-width="2.5" marker-end="url(#arrow)"/><line x1="290" y1="458" x2="395" y2="320" stroke="#334155" stroke-width="2.5" marker-end="url(#arrow)"/><line x1="625" y1="290" x2="730" y2="190" stroke="#334155" stroke-width="2.5" marker-end="url(#arrow)"/><line x1="625" y1="300" x2="730" y2="300" stroke="#334155" stroke-width="2.5" marker-end="url(#arrow)"/><line x1="625" y1="310" x2="730" y2="410" stroke="#334155" stroke-width="2.5" marker-end="url(#arrow)"/><line x1="510" y1="370" x2="560" y2="480" stroke="#334155" stroke-width="2.5" marker-end="url(#arrow)"/><text x="535" y="417" text-anchor="middle" font-size="12" font-weight="700" fill="#475569">context</text><rect x="80" y="120" width="210" height="75" rx="18" fill="#dbeafe" stroke="#2563eb" stroke-width="2"/><text x="185" y="157.5" text-anchor="middle" dominant-baseline="middle" font-size="14" font-weight="700" fill="#0f172a">Global system.md</text><rect x="80" y="220" width="210" height="75" rx="18" fill="#e0f2fe" stroke="#0284c7" stroke-width="2"/><text x="185" y="257.5" text-anchor="middle" dominant-baseline="middle" font-size="14" font-weight="700" fill="#0f172a">Agent prompt</text><rect x="80" y="320" width="210" height="75" rx="18" fill="#dcfce7" stroke="#16a34a" stroke-width="2"/><text x="185" y="357.5" text-anchor="middle" dominant-baseline="middle" font-size="14" font-weight="700" fill="#0f172a">Agent memory.md</text><rect x="80" y="420" width="210" height="75" rx="18" fill="#fef3c7" stroke="#d97706" stroke-width="2"/><text x="185" y="457.5" text-anchor="middle" dominant-baseline="middle" font-size="14" font-weight="700" fill="#0f172a">Task notifications</text><rect x="395" y="210" width="230" height="160" rx="18" fill="#ede9fe" stroke="#7c3aed" stroke-width="2"/><text x="510" y="290" text-anchor="middle" dominant-baseline="middle" font-size="14" font-weight="700" fill="#0f172a">Composed system prompt</text><rect x="730" y="150" width="210" height="75" rx="18" fill="#fed7aa" stroke="#ea580c" stroke-width="2"/><text x="835" y="187.5" text-anchor="middle" dominant-baseline="middle" font-size="14" font-weight="700" fill="#0f172a">Recent messages</text><rect x="730" y="260" width="210" height="75" rx="18" fill="#fee2e2" stroke="#dc2626" stroke-width="2"/><text x="835" y="297.5" text-anchor="middle" dominant-baseline="middle" font-size="14" font-weight="700" fill="#0f172a">RAG snippets on demand</text><rect x="730" y="370" width="210" height="75" rx="18" fill="#f1f5f9" stroke="#64748b" stroke-width="2"/><text x="835" y="407.5" text-anchor="middle" dominant-baseline="middle" font-size="14" font-weight="700" fill="#0f172a">Tool schemas</text><rect x="475" y="480" width="190" height="70" rx="18" fill="#fff7ed" stroke="#ea580c" stroke-width="2"/><text x="570" y="515" text-anchor="middle" dominant-baseline="middle" font-size="14" font-weight="700" fill="#0f172a">Model call</text></g>
</svg>