<svg width="1100" height="620" viewBox="0 0 1100 620" fill="none" xmlns="http://www.w3.org/2000/svg">
  <defs>
    <linearGradient id="bg" x1="0" y1="0" x2="1100" y2="620" gradientUnits="userSpaceOnUse"><stop stop-color="#0F172A"/><stop offset="0.5" stop-color="#1E1B4B"/><stop offset="1" stop-color="#312E81"/></linearGradient>
    <linearGradient id="blue" x1="0" y1="0" x2="1" y2="1"><stop stop-color="#38BDF8"/><stop offset="1" stop-color="#2563EB"/></linearGradient>
    <linearGradient id="amber" x1="0" y1="0" x2="1" y2="1"><stop stop-color="#FBBF24"/><stop offset="1" stop-color="#F97316"/></linearGradient>
    <linearGradient id="green" x1="0" y1="0" x2="1" y2="1"><stop stop-color="#86EFAC"/><stop offset="1" stop-color="#10B981"/></linearGradient>
    <linearGradient id="pink" x1="0" y1="0" x2="1" y2="1"><stop stop-color="#F9A8D4"/><stop offset="1" stop-color="#A855F7"/></linearGradient>
    <linearGradient id="cyan" x1="0" y1="0" x2="1" y2="1"><stop stop-color="#67E8F9"/><stop offset="1" stop-color="#0EA5E9"/></linearGradient>
    <linearGradient id="red" x1="0" y1="0" x2="1" y2="1"><stop stop-color="#FDA4AF"/><stop offset="1" stop-color="#EF4444"/></linearGradient>
    <filter id="shadow" x="-20%" y="-20%" width="140%" height="140%"><feDropShadow dx="0" dy="18" stdDeviation="18" flood-color="#020617" flood-opacity="0.34"/></filter>
    <marker id="arrow" markerWidth="14" markerHeight="14" refX="11" refY="7" orient="auto" markerUnits="strokeWidth"><path d="M2 2L12 7L2 12" fill="none" stroke="#E0F2FE" stroke-width="2.5" stroke-linecap="round" stroke-linejoin="round"/></marker>
  </defs>
  <rect width="1100" height="620" rx="34" fill="url(#bg)"/>
  <circle cx="95" cy="95" r="150" fill="#38BDF8" opacity="0.12"/>
  <circle cx="1025" cy="545" r="210" fill="#F472B6" opacity="0.12"/>
  <circle cx="550.0" cy="310.0" r="250" fill="#A78BFA" opacity="0.08"/>
  <text x="70" y="78" fill="#F8FAFC" font-family="Inter, Arial, sans-serif" font-size="36" font-weight="900">Approval Gate</text>
  <text x="70" y="112" fill="#CBD5E1" font-family="Inter, Arial, sans-serif" font-size="18">Human review before sensitive tool operations</text>
  <g filter="url(#shadow)"><rect x="70" y="250" width="165" height="100" rx="24" fill="url(#pink)"/><text x="152.5" y="284" text-anchor="middle" fill="white" font-family="Inter, Arial, sans-serif" font-size="20" font-weight="900">Agent</text><text x="152.5" y="316" text-anchor="middle" fill="#E0F2FE" font-family="Inter, Arial, sans-serif" font-size="14" font-weight="650">requests risky tool</text></g><path d="M235 300 C 277.5 300, 277.5 300, 320 300" stroke="#E0F2FE" stroke-width="5" stroke-linecap="round" marker-end="url(#arrow)"/><g filter="url(#shadow)"><rect x="320" y="250" width="170" height="100" rx="24" fill="url(#amber)"/><text x="405.0" y="284" text-anchor="middle" fill="white" font-family="Inter, Arial, sans-serif" font-size="20" font-weight="900">Approval Gate</text><text x="405.0" y="316" text-anchor="middle" fill="#E0F2FE" font-family="Inter, Arial, sans-serif" font-size="14" font-weight="650">pause + classify</text></g><path d="M490 300 C 532.5 300, 532.5 300, 575 300" stroke="#E0F2FE" stroke-width="5" stroke-linecap="round" marker-end="url(#arrow)"/><g filter="url(#shadow)"><rect x="575" y="220" width="180" height="160" rx="24" fill="url(#blue)"/><text x="665.0" y="254" text-anchor="middle" fill="white" font-family="Inter, Arial, sans-serif" font-size="20" font-weight="900">User Decision</text><text x="665.0" y="286" text-anchor="middle" fill="#E0F2FE" font-family="Inter, Arial, sans-serif" font-size="14" font-weight="650">approve once</text><text x="665.0" y="308" text-anchor="middle" fill="#E0F2FE" font-family="Inter, Arial, sans-serif" font-size="14" font-weight="650">session</text><text x="665.0" y="330" text-anchor="middle" fill="#E0F2FE" font-family="Inter, Arial, sans-serif" font-size="14" font-weight="650">permanent</text><text x="665.0" y="352" text-anchor="middle" fill="#E0F2FE" font-family="Inter, Arial, sans-serif" font-size="14" font-weight="650">deny</text></g><path d="M755 270 C 800.0 270, 800.0 210, 845 210" stroke="#E0F2FE" stroke-width="5" stroke-linecap="round" marker-end="url(#arrow)"/><g filter="url(#shadow)"><rect x="845" y="160" width="180" height="95" rx="24" fill="url(#green)"/><text x="935.0" y="194" text-anchor="middle" fill="white" font-family="Inter, Arial, sans-serif" font-size="20" font-weight="900">Approved</text><text x="935.0" y="226" text-anchor="middle" fill="#E0F2FE" font-family="Inter, Arial, sans-serif" font-size="14" font-weight="650">execute tool</text></g><path d="M755 330 C 800.0 330, 800.0 420, 845 420" stroke="#E0F2FE" stroke-width="5" stroke-linecap="round" marker-end="url(#arrow)"/><g filter="url(#shadow)"><rect x="845" y="380" width="180" height="95" rx="24" fill="url(#red)"/><text x="935.0" y="414" text-anchor="middle" fill="white" font-family="Inter, Arial, sans-serif" font-size="20" font-weight="900">Denied</text><text x="935.0" y="446" text-anchor="middle" fill="#E0F2FE" font-family="Inter, Arial, sans-serif" font-size="14" font-weight="650">agent adapts</text></g>
</svg>
