<svg xmlns="http://www.w3.org/2000/svg" viewBox="0 0 1100 620" role="img" aria-label="Agent UI State Map">
  <defs>
    <linearGradient id="bg" x1="0" x2="1" y1="0" y2="1"><stop offset="0" stop-color="#eff6ff"/><stop offset="0.55" stop-color="#f8fafc"/><stop offset="1" stop-color="#ecfeff"/></linearGradient>
    <filter id="shadow" x="-20%" y="-20%" width="140%" height="140%"><feDropShadow dx="0" dy="8" stdDeviation="10" flood-color="#0f172a" flood-opacity="0.12"/></filter>
    <marker id="arrow" markerWidth="10" markerHeight="10" refX="8" refY="3" orient="auto"><path d="M0,0 L0,6 L9,3 z" fill="#334155"/></marker>
  </defs>
  <rect width="1100" height="620" rx="28" fill="url(#bg)"/>
  <circle cx="1010" cy="80" r="130" fill="#93c5fd" opacity="0.18"/>
  <circle cx="80" cy="550" r="120" fill="#34d399" opacity="0.14"/>
  <text x="42" y="54" font-size="28" font-weight="900" fill="#0f172a">Agent UI State Map</text>
  <text x="42" y="84" font-size="15" font-weight="650" fill="#475569">Agent interfaces show work, not just messages</text>
  <g filter="url(#shadow)"><line x1="225" y1="300" x2="270" y2="300" stroke="#334155" stroke-width="2.5" marker-end="url(#arrow)"/><line x1="440" y1="300" x2="505" y2="300" stroke="#334155" stroke-width="2.5" marker-end="url(#arrow)"/><line x1="675" y1="280" x2="735" y2="125" stroke="#334155" stroke-width="2.5" marker-end="url(#arrow)"/><line x1="675" y1="295" x2="735" y2="225" stroke="#334155" stroke-width="2.5" marker-end="url(#arrow)"/><line x1="675" y1="310" x2="735" y2="325" stroke="#334155" stroke-width="2.5" marker-end="url(#arrow)"/><line x1="675" y1="325" x2="735" y2="425" stroke="#334155" stroke-width="2.5" marker-end="url(#arrow)"/><line x1="875" y1="225" x2="925" y2="225" stroke="#334155" stroke-width="2.5" marker-end="url(#arrow)"/><line x1="875" y1="425" x2="925" y2="425" stroke="#334155" stroke-width="2.5" marker-end="url(#arrow)"/><rect x="75" y="260" width="150" height="80" rx="18" fill="#dbeafe" stroke="#2563eb" stroke-width="2"/><text x="150" y="300" text-anchor="middle" dominant-baseline="middle" font-size="14" font-weight="700" fill="#0f172a">Stream parts</text><rect x="270" y="240" width="170" height="120" rx="18" fill="#dcfce7" stroke="#16a34a" stroke-width="2"/><text x="355" y="300" text-anchor="middle" dominant-baseline="middle" font-size="14" font-weight="700" fill="#0f172a">Chat state</text><rect x="505" y="240" width="170" height="120" rx="18" fill="#fef3c7" stroke="#d97706" stroke-width="2"/><text x="590" y="300" text-anchor="middle" dominant-baseline="middle" font-size="14" font-weight="700" fill="#0f172a">Message bubble</text><rect x="735" y="90" width="140" height="70" rx="18" fill="#e0f2fe" stroke="#0284c7" stroke-width="2"/><text x="805" y="125" text-anchor="middle" dominant-baseline="middle" font-size="14" font-weight="700" fill="#0f172a">Markdown text</text><rect x="735" y="190" width="140" height="70" rx="18" fill="#fed7aa" stroke="#ea580c" stroke-width="2"/><text x="805" y="225" text-anchor="middle" dominant-baseline="middle" font-size="14" font-weight="700" fill="#0f172a">Tool cards</text><rect x="735" y="290" width="140" height="70" rx="18" fill="#ede9fe" stroke="#7c3aed" stroke-width="2"/><text x="805" y="325" text-anchor="middle" dominant-baseline="middle" font-size="14" font-weight="700" fill="#0f172a">Reasoning</text><rect x="735" y="390" width="140" height="70" rx="18" fill="#fee2e2" stroke="#dc2626" stroke-width="2"/><text x="805" y="425" text-anchor="middle" dominant-baseline="middle" font-size="14" font-weight="700" fill="#0f172a">Files / previews</text><rect x="925" y="190" width="135" height="70" rx="18" fill="#fef3c7" stroke="#d97706" stroke-width="2"/><text x="992.5" y="217" text-anchor="middle" dominant-baseline="middle" font-size="14" font-weight="700" fill="#0f172a">Approval</text><text x="992.5" y="235" text-anchor="middle" dominant-baseline="middle" font-size="14" font-weight="700" fill="#0f172a">controls</text><rect x="925" y="390" width="135" height="70" rx="18" fill="#f1f5f9" stroke="#64748b" stroke-width="2"/><text x="992.5" y="425" text-anchor="middle" dominant-baseline="middle" font-size="14" font-weight="700" fill="#0f172a">Trace drawer</text></g>
</svg>