<svg xmlns="http://www.w3.org/2000/svg" viewBox="0 0 1100 620" role="img" aria-label="RAG Retrieval Pipeline">
  <defs>
    <linearGradient id="bg" x1="0" x2="1" y1="0" y2="1"><stop offset="0" stop-color="#eff6ff"/><stop offset="0.55" stop-color="#f8fafc"/><stop offset="1" stop-color="#ecfeff"/></linearGradient>
    <filter id="shadow" x="-20%" y="-20%" width="140%" height="140%"><feDropShadow dx="0" dy="8" stdDeviation="10" flood-color="#0f172a" flood-opacity="0.12"/></filter>
    <marker id="arrow" markerWidth="10" markerHeight="10" refX="8" refY="3" orient="auto"><path d="M0,0 L0,6 L9,3 z" fill="#334155"/></marker>
  </defs>
  <rect width="1100" height="620" rx="28" fill="url(#bg)"/>
  <circle cx="1010" cy="80" r="130" fill="#93c5fd" opacity="0.18"/>
  <circle cx="80" cy="550" r="120" fill="#34d399" opacity="0.14"/>
  <text x="42" y="54" font-size="28" font-weight="900" fill="#0f172a">RAG Retrieval Pipeline</text>
  <text x="42" y="84" font-size="15" font-weight="650" fill="#475569">Large knowledge becomes small relevant context</text>
  <g filter="url(#shadow)"><line x1="210" y1="280" x2="245" y2="280" stroke="#334155" stroke-width="2.5" marker-end="url(#arrow)"/><line x1="375" y1="280" x2="410" y2="280" stroke="#334155" stroke-width="2.5" marker-end="url(#arrow)"/><line x1="550" y1="280" x2="590" y2="280" stroke="#334155" stroke-width="2.5" marker-end="url(#arrow)"/><line x1="895" y1="215" x2="900" y2="330" stroke="#334155" stroke-width="2.5" marker-end="url(#arrow)"/><line x1="775" y1="280" x2="820" y2="370" stroke="#334155" stroke-width="2.5" marker-end="url(#arrow)"/><text x="797.5" y="317" text-anchor="middle" font-size="12" font-weight="700" fill="#475569">store</text><line x1="820" y1="370" x2="780" y2="485" stroke="#334155" stroke-width="2.5" marker-end="url(#arrow)"/><line x1="610" y1="485" x2="540" y2="485" stroke="#334155" stroke-width="2.5" marker-end="url(#arrow)"/><rect x="60" y="240" width="150" height="80" rx="18" fill="#dbeafe" stroke="#2563eb" stroke-width="2"/><text x="135" y="272" text-anchor="middle" dominant-baseline="middle" font-size="14" font-weight="700" fill="#0f172a">Upload / paste</text><text x="135" y="290" text-anchor="middle" dominant-baseline="middle" font-size="14" font-weight="700" fill="#0f172a">document</text><rect x="245" y="240" width="130" height="80" rx="18" fill="#e0f2fe" stroke="#0284c7" stroke-width="2"/><text x="310" y="280" text-anchor="middle" dominant-baseline="middle" font-size="14" font-weight="700" fill="#0f172a">Chunk text</text><rect x="410" y="240" width="140" height="80" rx="18" fill="#dcfce7" stroke="#16a34a" stroke-width="2"/><text x="480" y="280" text-anchor="middle" dominant-baseline="middle" font-size="14" font-weight="700" fill="#0f172a">Embed chunks</text><rect x="590" y="220" width="185" height="120" rx="18" fill="#fef3c7" stroke="#d97706" stroke-width="2"/><text x="682.5" y="272" text-anchor="middle" dominant-baseline="middle" font-size="14" font-weight="700" fill="#0f172a">SQLite sources +</text><text x="682.5" y="290" text-anchor="middle" dominant-baseline="middle" font-size="14" font-weight="700" fill="#0f172a">chunks + FTS5</text><rect x="820" y="135" width="150" height="80" rx="18" fill="#ede9fe" stroke="#7c3aed" stroke-width="2"/><text x="895" y="175" text-anchor="middle" dominant-baseline="middle" font-size="14" font-weight="700" fill="#0f172a">User/tool query</text><rect x="820" y="330" width="160" height="80" rx="18" fill="#fed7aa" stroke="#ea580c" stroke-width="2"/><text x="900" y="362" text-anchor="middle" dominant-baseline="middle" font-size="14" font-weight="700" fill="#0f172a">Retrieve top</text><text x="900" y="380" text-anchor="middle" dominant-baseline="middle" font-size="14" font-weight="700" fill="#0f172a">chunks</text><rect x="610" y="445" width="170" height="80" rx="18" fill="#fee2e2" stroke="#dc2626" stroke-width="2"/><text x="695" y="485" text-anchor="middle" dominant-baseline="middle" font-size="14" font-weight="700" fill="#0f172a">Relevant context</text><rect x="380" y="445" width="160" height="80" rx="18" fill="#f1f5f9" stroke="#64748b" stroke-width="2"/><text x="460" y="485" text-anchor="middle" dominant-baseline="middle" font-size="14" font-weight="700" fill="#0f172a">Agent answer</text></g>
</svg>