<svg width="1100" height="620" viewBox="0 0 1100 620" fill="none" xmlns="http://www.w3.org/2000/svg">
  <defs>
    <linearGradient id="bg" x1="0" y1="0" x2="1100" y2="620" gradientUnits="userSpaceOnUse"><stop stop-color="#0F172A"/><stop offset="0.5" stop-color="#1E1B4B"/><stop offset="1" stop-color="#312E81"/></linearGradient>
    <linearGradient id="blue" x1="0" y1="0" x2="1" y2="1"><stop stop-color="#38BDF8"/><stop offset="1" stop-color="#2563EB"/></linearGradient>
    <linearGradient id="amber" x1="0" y1="0" x2="1" y2="1"><stop stop-color="#FBBF24"/><stop offset="1" stop-color="#F97316"/></linearGradient>
    <linearGradient id="green" x1="0" y1="0" x2="1" y2="1"><stop stop-color="#86EFAC"/><stop offset="1" stop-color="#10B981"/></linearGradient>
    <linearGradient id="pink" x1="0" y1="0" x2="1" y2="1"><stop stop-color="#F9A8D4"/><stop offset="1" stop-color="#A855F7"/></linearGradient>
    <linearGradient id="cyan" x1="0" y1="0" x2="1" y2="1"><stop stop-color="#67E8F9"/><stop offset="1" stop-color="#0EA5E9"/></linearGradient>
    <linearGradient id="red" x1="0" y1="0" x2="1" y2="1"><stop stop-color="#FDA4AF"/><stop offset="1" stop-color="#EF4444"/></linearGradient>
    <filter id="shadow" x="-20%" y="-20%" width="140%" height="140%"><feDropShadow dx="0" dy="18" stdDeviation="18" flood-color="#020617" flood-opacity="0.34"/></filter>
    <marker id="arrow" markerWidth="14" markerHeight="14" refX="11" refY="7" orient="auto" markerUnits="strokeWidth"><path d="M2 2L12 7L2 12" fill="none" stroke="#E0F2FE" stroke-width="2.5" stroke-linecap="round" stroke-linejoin="round"/></marker>
  </defs>
  <rect width="1100" height="620" rx="34" fill="url(#bg)"/>
  <circle cx="95" cy="95" r="150" fill="#38BDF8" opacity="0.12"/>
  <circle cx="1025" cy="545" r="210" fill="#F472B6" opacity="0.12"/>
  <circle cx="550.0" cy="310.0" r="250" fill="#A78BFA" opacity="0.08"/>
  <text x="70" y="78" fill="#F8FAFC" font-family="Inter, Arial, sans-serif" font-size="36" font-weight="900">Production Shape</text>
  <text x="70" y="112" fill="#CBD5E1" font-family="Inter, Arial, sans-serif" font-size="18">Operate the agent safely outside local development</text>
  <g filter="url(#shadow)"><rect x="70" y="260" width="150" height="90" rx="24" fill="url(#blue)"/><text x="145.0" y="294" text-anchor="middle" fill="white" font-family="Inter, Arial, sans-serif" font-size="20" font-weight="900">Browser</text><text x="145.0" y="326" text-anchor="middle" fill="#E0F2FE" font-family="Inter, Arial, sans-serif" font-size="14" font-weight="650">users</text></g><path d="M220 305 C 262.5 305, 262.5 305, 305 305" stroke="#E0F2FE" stroke-width="5" stroke-linecap="round" marker-end="url(#arrow)"/><g filter="url(#shadow)"><rect x="305" y="260" width="155" height="90" rx="24" fill="url(#cyan)"/><text x="382.5" y="294" text-anchor="middle" fill="white" font-family="Inter, Arial, sans-serif" font-size="20" font-weight="900">Reverse Proxy</text><text x="382.5" y="326" text-anchor="middle" fill="#E0F2FE" font-family="Inter, Arial, sans-serif" font-size="14" font-weight="650">TLS + SSE</text></g><path d="M460 305 C 502.5 305, 502.5 305, 545 305" stroke="#E0F2FE" stroke-width="5" stroke-linecap="round" marker-end="url(#arrow)"/><g filter="url(#shadow)"><rect x="545" y="230" width="175" height="150" rx="24" fill="url(#pink)"/><text x="632.5" y="264" text-anchor="middle" fill="white" font-family="Inter, Arial, sans-serif" font-size="20" font-weight="900">Next.js App</text><text x="632.5" y="296" text-anchor="middle" fill="#E0F2FE" font-family="Inter, Arial, sans-serif" font-size="14" font-weight="650">agent runtime</text><text x="632.5" y="318" text-anchor="middle" fill="#E0F2FE" font-family="Inter, Arial, sans-serif" font-size="14" font-weight="650">API routes</text></g><path d="M720 260 C 770.0 260, 770.0 190, 820 190" stroke="#E0F2FE" stroke-width="5" stroke-linecap="round" marker-end="url(#arrow)"/><g filter="url(#shadow)"><rect x="820" y="145" width="180" height="90" rx="24" fill="url(#amber)"/><text x="910.0" y="179" text-anchor="middle" fill="white" font-family="Inter, Arial, sans-serif" font-size="20" font-weight="900">Model Provider</text><text x="910.0" y="211" text-anchor="middle" fill="#E0F2FE" font-family="Inter, Arial, sans-serif" font-size="14" font-weight="650">LLM calls</text></g><path d="M720 305 C 770.0 305, 770.0 305, 820 305" stroke="#E0F2FE" stroke-width="5" stroke-linecap="round" marker-end="url(#arrow)"/><g filter="url(#shadow)"><rect x="820" y="260" width="180" height="90" rx="24" fill="url(#green)"/><text x="910.0" y="294" text-anchor="middle" fill="white" font-family="Inter, Arial, sans-serif" font-size="20" font-weight="900">Data Volume</text><text x="910.0" y="326" text-anchor="middle" fill="#E0F2FE" font-family="Inter, Arial, sans-serif" font-size="14" font-weight="650">SQLite + files</text></g><path d="M720 350 C 770.0 350, 770.0 430, 820 430" stroke="#E0F2FE" stroke-width="5" stroke-linecap="round" marker-end="url(#arrow)"/><g filter="url(#shadow)"><rect x="820" y="400" width="180" height="90" rx="24" fill="url(#blue)"/><text x="910.0" y="434" text-anchor="middle" fill="white" font-family="Inter, Arial, sans-serif" font-size="20" font-weight="900">Observability</text><text x="910.0" y="466" text-anchor="middle" fill="#E0F2FE" font-family="Inter, Arial, sans-serif" font-size="14" font-weight="650">Langfuse + logs</text></g>
</svg>
