<svg xmlns="http://www.w3.org/2000/svg" viewBox="0 0 1100 620" role="img" aria-label="Agent Debug Loop">
  <defs>
    <linearGradient id="bg" x1="0" x2="1" y1="0" y2="1"><stop offset="0" stop-color="#eff6ff"/><stop offset="0.55" stop-color="#f8fafc"/><stop offset="1" stop-color="#ecfeff"/></linearGradient>
    <filter id="shadow" x="-20%" y="-20%" width="140%" height="140%"><feDropShadow dx="0" dy="8" stdDeviation="10" flood-color="#0f172a" flood-opacity="0.12"/></filter>
    <marker id="arrow" markerWidth="10" markerHeight="10" refX="8" refY="3" orient="auto"><path d="M0,0 L0,6 L9,3 z" fill="#334155"/></marker>
  </defs>
  <rect width="1100" height="620" rx="28" fill="url(#bg)"/>
  <circle cx="1010" cy="80" r="130" fill="#93c5fd" opacity="0.18"/>
  <circle cx="80" cy="550" r="120" fill="#34d399" opacity="0.14"/>
  <text x="42" y="54" font-size="28" font-weight="900" fill="#0f172a">Agent Debug Loop</text>
  <text x="42" y="84" font-size="15" font-weight="650" fill="#475569">Use traces to classify failures before patching</text>
  <g filter="url(#shadow)"><line x1="210" y1="290" x2="250" y2="290" stroke="#334155" stroke-width="2.5" marker-end="url(#arrow)"/><line x1="380" y1="290" x2="430" y2="290" stroke="#334155" stroke-width="2.5" marker-end="url(#arrow)"/><line x1="580" y1="255" x2="635" y2="130" stroke="#334155" stroke-width="2.5" marker-end="url(#arrow)"/><line x1="580" y1="280" x2="635" y2="235" stroke="#334155" stroke-width="2.5" marker-end="url(#arrow)"/><line x1="580" y1="310" x2="635" y2="340" stroke="#334155" stroke-width="2.5" marker-end="url(#arrow)"/><line x1="580" y1="335" x2="635" y2="445" stroke="#334155" stroke-width="2.5" marker-end="url(#arrow)"/><line x1="795" y1="130" x2="865" y2="280" stroke="#334155" stroke-width="2.5" marker-end="url(#arrow)"/><line x1="795" y1="235" x2="865" y2="290" stroke="#334155" stroke-width="2.5" marker-end="url(#arrow)"/><line x1="795" y1="340" x2="865" y2="300" stroke="#334155" stroke-width="2.5" marker-end="url(#arrow)"/><line x1="795" y1="445" x2="865" y2="310" stroke="#334155" stroke-width="2.5" marker-end="url(#arrow)"/><rect x="60" y="250" width="150" height="80" rx="18" fill="#fee2e2" stroke="#dc2626" stroke-width="2"/><text x="135" y="282" text-anchor="middle" dominant-baseline="middle" font-size="14" font-weight="700" fill="#0f172a">Bad answer /</text><text x="135" y="300" text-anchor="middle" dominant-baseline="middle" font-size="14" font-weight="700" fill="#0f172a">failed task</text><rect x="250" y="250" width="130" height="80" rx="18" fill="#dbeafe" stroke="#2563eb" stroke-width="2"/><text x="315" y="290" text-anchor="middle" dominant-baseline="middle" font-size="14" font-weight="700" fill="#0f172a">Inspect trace</text><rect x="430" y="230" width="150" height="120" rx="18" fill="#fef3c7" stroke="#d97706" stroke-width="2"/><text x="505" y="290" text-anchor="middle" dominant-baseline="middle" font-size="14" font-weight="700" fill="#0f172a">Classify failure</text><rect x="635" y="95" width="160" height="70" rx="18" fill="#e0f2fe" stroke="#0284c7" stroke-width="2"/><text x="715" y="130" text-anchor="middle" dominant-baseline="middle" font-size="14" font-weight="700" fill="#0f172a">Prompt / context</text><rect x="635" y="200" width="160" height="70" rx="18" fill="#dcfce7" stroke="#16a34a" stroke-width="2"/><text x="715" y="235" text-anchor="middle" dominant-baseline="middle" font-size="14" font-weight="700" fill="#0f172a">Tool / schema</text><rect x="635" y="305" width="160" height="70" rx="18" fill="#ede9fe" stroke="#7c3aed" stroke-width="2"/><text x="715" y="340" text-anchor="middle" dominant-baseline="middle" font-size="14" font-weight="700" fill="#0f172a">RAG / memory</text><rect x="635" y="410" width="160" height="70" rx="18" fill="#fed7aa" stroke="#ea580c" stroke-width="2"/><text x="715" y="445" text-anchor="middle" dominant-baseline="middle" font-size="14" font-weight="700" fill="#0f172a">Loop / safety</text><rect x="865" y="250" width="145" height="80" rx="18" fill="#f1f5f9" stroke="#64748b" stroke-width="2"/><text x="937.5" y="282" text-anchor="middle" dominant-baseline="middle" font-size="14" font-weight="700" fill="#0f172a">Patch +</text><text x="937.5" y="300" text-anchor="middle" dominant-baseline="middle" font-size="14" font-weight="700" fill="#0f172a">regression eval</text></g>
</svg>