<svg xmlns="http://www.w3.org/2000/svg" viewBox="0 0 1100 620" role="img" aria-label="Multi-Agent Orchestration">
  <defs>
    <linearGradient id="bg" x1="0" x2="1" y1="0" y2="1"><stop offset="0" stop-color="#eff6ff"/><stop offset="0.55" stop-color="#f8fafc"/><stop offset="1" stop-color="#ecfeff"/></linearGradient>
    <filter id="shadow" x="-20%" y="-20%" width="140%" height="140%"><feDropShadow dx="0" dy="8" stdDeviation="10" flood-color="#0f172a" flood-opacity="0.12"/></filter>
    <marker id="arrow" markerWidth="10" markerHeight="10" refX="8" refY="3" orient="auto"><path d="M0,0 L0,6 L9,3 z" fill="#334155"/></marker>
  </defs>
  <rect width="1100" height="620" rx="28" fill="url(#bg)"/>
  <circle cx="1010" cy="80" r="130" fill="#93c5fd" opacity="0.18"/>
  <circle cx="80" cy="550" r="120" fill="#34d399" opacity="0.14"/>
  <text x="42" y="54" font-size="28" font-weight="900" fill="#0f172a">Multi-Agent Orchestration</text>
  <text x="42" y="84" font-size="15" font-weight="650" fill="#475569">Delegate only when specialization or parallel work pays for the overhead</text>
  <g filter="url(#shadow)"><line x1="195" y1="295" x2="245" y2="295" stroke="#334155" stroke-width="2.5" marker-end="url(#arrow)"/><line x1="425" y1="295" x2="485" y2="290" stroke="#334155" stroke-width="2.5" marker-end="url(#arrow)"/><line x1="645" y1="290" x2="705" y2="132" stroke="#334155" stroke-width="2.5" marker-end="url(#arrow)"/><line x1="645" y1="290" x2="705" y2="282" stroke="#334155" stroke-width="2.5" marker-end="url(#arrow)"/><line x1="645" y1="290" x2="705" y2="432" stroke="#334155" stroke-width="2.5" marker-end="url(#arrow)"/><line x1="860" y1="132" x2="925" y2="270" stroke="#334155" stroke-width="2.5" marker-end="url(#arrow)"/><line x1="860" y1="282" x2="925" y2="290" stroke="#334155" stroke-width="2.5" marker-end="url(#arrow)"/><line x1="860" y1="432" x2="925" y2="310" stroke="#334155" stroke-width="2.5" marker-end="url(#arrow)"/><line x1="925" y1="335" x2="550" y2="455" stroke="#334155" stroke-width="2.5" marker-end="url(#arrow)"/><rect x="55" y="255" width="140" height="80" rx="18" fill="#dbeafe" stroke="#2563eb" stroke-width="2"/><text x="125" y="295" text-anchor="middle" dominant-baseline="middle" font-size="14" font-weight="700" fill="#0f172a">User goal</text><rect x="245" y="240" width="180" height="110" rx="18" fill="#dcfce7" stroke="#16a34a" stroke-width="2"/><text x="335" y="287" text-anchor="middle" dominant-baseline="middle" font-size="14" font-weight="700" fill="#0f172a">Parent / orchestrator</text><text x="335" y="305" text-anchor="middle" dominant-baseline="middle" font-size="14" font-weight="700" fill="#0f172a">agent</text><rect x="485" y="245" width="160" height="90" rx="18" fill="#fef3c7" stroke="#d97706" stroke-width="2"/><text x="565" y="290" text-anchor="middle" dominant-baseline="middle" font-size="14" font-weight="700" fill="#0f172a">Decompose tasks</text><rect x="705" y="95" width="155" height="75" rx="18" fill="#e0f2fe" stroke="#0284c7" stroke-width="2"/><text x="782.5" y="132.5" text-anchor="middle" dominant-baseline="middle" font-size="14" font-weight="700" fill="#0f172a">Research sub-agent</text><rect x="705" y="245" width="155" height="75" rx="18" fill="#fed7aa" stroke="#ea580c" stroke-width="2"/><text x="782.5" y="282.5" text-anchor="middle" dominant-baseline="middle" font-size="14" font-weight="700" fill="#0f172a">Coder sub-agent</text><rect x="705" y="395" width="155" height="75" rx="18" fill="#ede9fe" stroke="#7c3aed" stroke-width="2"/><text x="782.5" y="432.5" text-anchor="middle" dominant-baseline="middle" font-size="14" font-weight="700" fill="#0f172a">Reviewer sub-agent</text><rect x="925" y="245" width="140" height="90" rx="18" fill="#fee2e2" stroke="#dc2626" stroke-width="2"/><text x="995" y="282" text-anchor="middle" dominant-baseline="middle" font-size="14" font-weight="700" fill="#0f172a">Task files +</text><text x="995" y="300" text-anchor="middle" dominant-baseline="middle" font-size="14" font-weight="700" fill="#0f172a">notifications</text><rect x="455" y="455" width="190" height="75" rx="18" fill="#f1f5f9" stroke="#64748b" stroke-width="2"/><text x="550" y="492.5" text-anchor="middle" dominant-baseline="middle" font-size="14" font-weight="700" fill="#0f172a">Final synthesis</text></g>
</svg>